<svg width="260" height="173" viewBox="0 0 260 173" fill="none" xmlns="http://www.w3.org/2000/svg">
<path d="M233.325 157.811H216.206V157.94H233.325V157.811Z" fill="#EBEBEB"/>
<path d="M171.981 159.217H167.49V159.346H171.981V159.217Z" fill="#EBEBEB"/>
<path d="M215.689 153.014H205.77V153.143H215.689V153.014Z" fill="#EBEBEB"/>
<path d="M50.2188 153.883H27.8945V154.012H50.2188V153.883Z" fill="#EBEBEB"/>
<path d="M58.0961 153.883H54.8242V154.012H58.0961V153.883Z" fill="#EBEBEB"/>
<path d="M117.155 156.064H68.7336V156.193H117.155V156.064Z" fill="#EBEBEB"/>
<path d="M259.221 149.494H0.778809V149.623H259.221V149.494Z" fill="#EBEBEB"/>
<path d="M48.72 96.6634C49.3113 99.4849 50.9803 101.964 53.3719 103.574C55.7578 105.16 58.5115 106.105 61.3681 106.319C64.1335 106.577 67.1056 106.262 69.3127 104.577C71.5198 102.892 72.6 99.5476 71.0907 97.2164C68.956 93.9187 64.3712 93.6396 60.4533 93.9239C56.5353 94.2082 52.4157 95.3505 48.72 96.6634Z" fill="#E0E0E0"/>
<path d="M83.8835 76.1896C86.131 77.9947 87.585 80.606 87.9359 83.4673C88.2693 86.3138 87.8616 89.1982 86.7522 91.8408C85.7184 94.4252 84.1006 96.927 81.5833 98.1313C79.0661 99.3357 75.6082 98.7826 74.2177 96.3791C72.2484 92.9831 74.0833 88.7654 76.1044 85.4004C78.1254 82.0355 81.0354 78.8877 83.8835 76.1896Z" fill="#E0E0E0"/>
<path d="M41.0337 78.9911C41.0474 81.7452 42.1339 84.3855 44.0626 86.3515C45.9928 88.2895 48.3885 89.6991 51.0199 90.4452C53.5578 91.2206 56.4007 91.479 58.7732 90.3367C61.1457 89.1944 62.81 86.2585 61.8745 83.7929C60.5047 80.2988 56.2611 79.141 52.5447 78.6706C48.8283 78.2002 44.7449 78.4742 41.0337 78.9911Z" fill="#E0E0E0"/>
<path d="M77.8514 66.5445C79.6091 68.6648 80.4713 71.3867 80.2549 74.1324C80.0182 76.8569 79.0855 79.4751 77.5464 81.7357C76.094 83.9583 74.0885 85.9897 71.5196 86.641C68.9506 87.2922 65.8028 86.1241 64.9603 83.5913C63.7663 80.0352 66.2887 76.4377 68.8266 73.6775C71.3645 70.9173 74.6932 68.5241 77.8514 66.5445Z" fill="#E0E0E0"/>
<path d="M36.0924 61.2516C35.8855 63.8706 36.7089 66.4669 38.3873 68.488C40.0644 70.483 42.2273 72.0122 44.6675 72.928C47.0141 73.8636 49.6968 74.3443 52.0538 73.4449C54.4107 72.5455 56.1888 69.8939 55.491 67.4697C54.4573 64.0479 50.5289 62.6317 47.04 61.8719C43.551 61.112 39.6589 61.0552 36.0924 61.2516Z" fill="#E0E0E0"/>
<path d="M72.0418 52.3715C73.5432 54.5243 74.1442 57.1785 73.7165 59.7681C73.2818 62.3349 72.1942 64.7467 70.5584 66.7719C69.0077 68.7671 66.9402 70.54 64.4488 70.9535C61.9574 71.367 59.0629 69.9869 58.4633 67.5369C57.6104 64.0686 60.293 60.8484 62.9188 58.4346C65.6812 56.0227 68.7484 53.9843 72.0418 52.3715Z" fill="#E0E0E0"/>
<path d="M35.0999 44.5407C34.5899 46.981 35.0536 49.524 36.3921 51.6272C37.7358 53.7106 39.5921 55.4139 41.7832 56.5738C43.8817 57.7368 46.3524 58.5121 48.6836 57.9435C51.0147 57.3749 53.0306 55.0955 52.6429 52.723C52.0899 49.3736 48.5492 47.5541 45.3497 46.4273C42.0304 45.3526 38.5843 44.7183 35.0999 44.5407Z" fill="#E0E0E0"/>
<path d="M70.0412 40.4831C71.1953 42.6938 71.4437 45.2669 70.7339 47.6575C70.024 50.0245 68.7175 52.1693 66.9399 53.886C65.2342 55.5813 63.0736 56.9873 60.6753 57.0907C58.2769 57.194 55.7132 55.54 55.4393 53.1468C55.0568 49.7767 57.972 47.0683 60.7373 45.1041C63.6243 43.1655 66.7521 41.612 70.0412 40.4831Z" fill="#E0E0E0"/>
<path d="M37.7981 26.0931C36.9725 28.3079 37.0429 30.7574 37.9945 32.9211C38.9543 35.0658 40.4516 36.9264 42.3415 38.3226C44.1454 39.713 46.3473 40.7933 48.6165 40.5917C50.8856 40.3901 53.0927 38.5242 53.0668 36.2654C53.0307 33.0452 49.9655 30.8432 47.1278 29.3236C44.172 27.8446 41.0355 26.7586 37.7981 26.0931Z" fill="#E0E0E0"/>
<path d="M71.1423 27.3026C71.9112 29.5386 71.7777 31.9863 70.7702 34.1255C69.7533 36.244 68.2082 38.065 66.2836 39.4132C64.4487 40.7571 62.2209 41.7805 59.9569 41.5221C57.693 41.2636 55.5324 39.3615 55.6151 37.0872C55.734 33.867 58.856 31.7426 61.7298 30.3005C64.7226 28.8937 67.8872 27.8858 71.1423 27.3026Z" fill="#E0E0E0"/>
<path d="M43.2565 9.21162C42.201 11.1808 41.9561 13.4843 42.5742 15.6313C43.2 17.7618 44.3643 19.6951 45.9547 21.2447C47.464 22.7954 49.3868 24.0721 51.537 24.1703C53.6873 24.2685 55.9926 22.8264 56.2613 20.6916C56.6335 17.673 54.0491 15.2178 51.6094 13.4552C49.0242 11.6788 46.2156 10.2519 43.2565 9.21162Z" fill="#E0E0E0"/>
<path d="M74.3314 14.6027C74.7648 16.7956 74.3252 19.0711 73.1064 20.9449C71.8861 22.8 70.2071 24.3081 68.2321 25.3229C66.3403 26.3567 64.0971 27.0235 62.0295 26.4911C59.962 25.9587 58.158 23.9066 58.5302 21.7771C59.0471 18.7843 62.2466 17.1923 65.1205 16.2051C68.1074 15.27 71.2042 14.7313 74.3314 14.6027Z" fill="#E0E0E0"/>
<path d="M63.234 1.12238C63.1068 0.909767 62.9017 0.755158 62.6623 0.691446C62.4229 0.627734 62.1681 0.659951 61.9521 0.78124C59.7292 1.92466 57.8974 3.70433 56.6902 5.89323C55.8487 7.41032 55.5966 9.18454 55.9821 10.876C56.8142 14.3185 61.3835 15.4091 63.6216 12.6593C65.348 10.5349 65.6065 7.59378 65.224 4.90598C65.012 3.44836 63.9886 2.37324 63.234 1.12238Z" fill="#E0E0E0"/>
<path d="M111.237 116.863C99.1989 115.69 87.6155 110.444 77.681 101.734C68.1841 93.3351 61.0974 82.5569 57.1504 70.509C51.0821 51.6323 52.4312 29.7061 60.9546 8.77226L61.9109 9.1651C53.5011 29.856 52.1417 51.529 58.1531 70.204C66.0563 94.7819 87.9308 113.56 111.351 115.86L111.237 116.863Z" fill="#E0E0E0"/>
<path d="M205.904 96.6634C205.314 99.4854 203.645 101.965 201.252 103.574C198.864 105.159 196.109 106.104 193.251 106.319C190.491 106.577 187.514 106.262 185.307 104.577C183.099 102.892 182.019 99.5476 183.528 97.2164C185.663 93.9187 190.248 93.6396 194.171 93.9239C198.094 94.2082 202.209 95.3505 205.904 96.6634Z" fill="#E0E0E0"/>
<path d="M170.741 76.1896C168.497 77.9965 167.047 80.6076 166.699 83.4673C166.368 86.3138 166.776 89.1975 167.882 91.8408C168.916 94.4252 170.534 96.927 173.051 98.1313C175.569 99.3357 179.026 98.7826 180.417 96.3791C182.386 92.9831 180.556 88.7654 178.53 85.4004C176.504 82.0355 173.589 78.8877 170.741 76.1896Z" fill="#E0E0E0"/>
<path d="M213.591 78.9911C213.577 81.7452 212.49 84.3855 210.562 86.3515C208.632 88.2904 206.236 89.7002 203.604 90.4452C201.067 91.2206 198.224 91.479 195.851 90.3367C193.479 89.1944 191.814 86.2585 192.781 83.7929C194.145 80.2988 198.389 79.141 202.085 78.6706C205.781 78.2002 209.879 78.4742 213.591 78.9911Z" fill="#E0E0E0"/>
<path d="M176.773 66.5445C175.015 68.6642 174.154 71.3871 174.375 74.1324C174.606 76.858 175.54 79.4773 177.083 81.7357C178.53 83.9583 180.536 85.9897 183.105 86.641C185.674 87.2922 188.821 86.1241 189.664 83.5913C190.858 80.0352 188.336 76.4377 185.798 73.6775C183.26 70.9173 179.952 68.5241 176.773 66.5445Z" fill="#E0E0E0"/>
<path d="M218.532 61.2516C218.739 63.8706 217.915 66.4669 216.237 68.488C214.56 70.483 212.397 72.0122 209.957 72.928C207.61 73.8636 204.933 74.3443 202.571 73.4449C200.208 72.5455 198.436 69.8939 199.138 67.4697C200.172 64.0479 204.095 62.6317 207.584 61.8719C211.073 61.112 214.965 61.0552 218.532 61.2516Z" fill="#E0E0E0"/>
<path d="M182.588 52.3715C181.083 54.5227 180.48 57.1778 180.908 59.7681C181.347 62.3364 182.44 64.7484 184.082 66.7719C185.632 68.7671 187.7 70.54 190.196 70.9535C192.693 71.367 195.577 69.9869 196.182 67.5369C197.03 64.0686 194.352 60.8484 191.721 58.4346C188.955 56.0227 185.885 53.9843 182.588 52.3715Z" fill="#E0E0E0"/>
<path d="M219.524 44.5407C220.034 46.981 219.571 49.524 218.232 51.6272C216.888 53.7106 215.032 55.4139 212.841 56.5738C210.742 57.7368 208.277 58.5121 205.941 57.9435C203.604 57.3749 201.594 55.0955 201.981 52.723C202.534 49.3736 206.075 47.5541 209.28 46.4273C212.597 45.3523 216.042 44.718 219.524 44.5407Z" fill="#E0E0E0"/>
<path d="M184.562 40.4831C183.408 42.6938 183.16 45.2669 183.87 47.6575C184.595 50.0283 185.918 52.173 187.71 53.886C189.411 55.5813 191.571 56.9873 193.97 57.0907C196.368 57.194 198.932 55.54 199.206 53.1468C199.588 49.7767 196.678 47.0683 193.908 45.1041C191.008 43.1622 187.866 41.6087 184.562 40.4831Z" fill="#E0E0E0"/>
<path d="M216.837 26.0931C217.661 28.3086 217.588 30.7581 216.635 32.9211C215.675 35.0658 214.178 36.9264 212.288 38.3226C210.484 39.713 208.282 40.7933 206.018 40.5917C203.754 40.3901 201.537 38.5242 201.563 36.2654C201.599 33.0452 204.664 30.8432 207.502 29.3236C210.459 27.8442 213.597 26.7582 216.837 26.0931Z" fill="#E0E0E0"/>
<path d="M183.482 27.3026C182.713 29.5386 182.847 31.9863 183.854 34.1255C184.871 36.244 186.416 38.065 188.341 39.4132C190.176 40.7571 192.404 41.7805 194.667 41.5221C196.931 41.2636 199.092 39.3615 199.009 37.0872C198.89 33.867 195.774 31.7426 192.895 30.3005C189.902 28.8937 186.737 27.8858 183.482 27.3026Z" fill="#E0E0E0"/>
<path d="M211.368 9.21162C212.424 11.1808 212.669 13.4843 212.05 15.6313C211.427 17.7631 210.263 19.697 208.67 21.2447C207.161 22.7954 205.238 24.0721 203.088 24.1703C200.937 24.2685 198.632 22.8264 198.363 20.6916C197.991 17.673 200.576 15.2178 203.041 13.4552C205.618 11.6805 208.418 10.2536 211.368 9.21162Z" fill="#E0E0E0"/>
<path d="M180.293 14.6027C179.859 16.7956 180.299 19.0711 181.518 20.9449C182.738 22.8 184.417 24.3081 186.392 25.3229C188.284 26.3567 190.501 27.0235 192.595 26.4911C194.688 25.9587 196.466 23.9066 196.094 21.7771C195.577 18.7843 192.383 17.1923 189.504 16.2051C186.517 15.27 183.42 14.7313 180.293 14.6027Z" fill="#E0E0E0"/>
<path d="M191.39 1.12237C191.518 0.909397 191.724 0.754674 191.965 0.690993C192.205 0.627312 192.461 0.65968 192.677 0.781233C194.898 1.92625 196.728 3.70565 197.934 5.89322C198.776 7.41031 199.028 9.18453 198.642 10.876C197.81 14.3184 193.241 15.4091 191.003 12.6592C189.276 10.5348 189.018 7.59377 189.405 4.90597C189.612 3.44836 190.636 2.37324 191.39 1.12237Z" fill="#E0E0E0"/>
<path d="M143.387 116.863L143.289 115.829C166.699 113.534 188.589 94.756 196.487 70.204C202.483 51.5548 201.139 29.887 192.714 9.17543L193.675 8.7826C202.193 29.7164 203.542 51.6427 197.474 70.5193C193.528 82.5637 186.443 93.3385 176.949 101.734C167.03 110.443 155.426 115.69 143.387 116.863Z" fill="#E0E0E0"/>
<path d="M130 172.552C185.349 172.552 230.219 169.933 230.219 166.701C230.219 163.47 185.349 160.85 130 160.85C74.6507 160.85 29.7812 163.47 29.7812 166.701C29.7812 169.933 74.6507 172.552 130 172.552Z" fill="#F5F5F5"/>
<path d="M180.277 143.695H79.7227V171.322H180.277V143.695Z" fill="#263238"/>
<path opacity="0.2" d="M180.277 143.695H79.7227V171.327H180.277V143.695Z" fill="white"/>
<path d="M150.562 121.96H106.916V143.674H150.562V121.96Z" fill="#263238"/>
<path opacity="0.2" d="M150.562 121.96H106.916V143.674H150.562V121.96Z" fill="white"/>
<path d="M127.452 128.095L126.997 130.39H129.483L127.472 140.444H130.331L132.781 128.095H127.452Z" fill="#159594"/>
<path d="M156.546 83.9265C156.546 76.5516 153.616 69.4786 148.402 64.2637C143.187 59.0489 136.114 56.1192 128.739 56.1192C121.364 56.1192 114.291 59.0489 109.076 64.2637C103.861 69.4786 100.931 76.5516 100.931 83.9265C100.931 95.9844 108.378 105.841 119.335 110.103L138.442 117.518L134.817 111.072C140.983 109.688 146.495 106.246 150.445 101.312C154.394 96.3782 156.546 90.2465 156.546 83.9265Z" fill="#159594"/>
<path d="M128.117 109.218C122.992 109.217 117.983 107.697 113.722 104.85C109.461 102.002 106.14 97.9555 104.18 93.2208C102.219 88.4861 101.706 83.2763 102.706 78.2502C103.706 73.2241 106.174 68.6074 109.798 64.9839C113.422 61.3604 118.039 58.8929 123.065 57.8933C128.091 56.8937 133.301 57.407 138.036 59.3683C142.77 61.3295 146.817 64.6506 149.664 68.9116C152.511 73.1726 154.03 78.1822 154.03 83.3068C154.023 90.177 151.29 96.7635 146.432 101.621C141.574 106.479 134.987 109.211 128.117 109.218ZM128.117 57.6605C123.044 57.661 118.086 59.1656 113.869 61.9839C109.652 64.8023 106.365 68.8079 104.424 73.4942C102.484 78.1805 101.976 83.3371 102.966 88.3118C103.956 93.2865 106.399 97.856 109.985 101.442C113.572 105.029 118.142 107.471 123.117 108.461C128.092 109.45 133.248 108.942 137.934 107.001C142.62 105.06 146.626 101.772 149.444 97.5549C152.261 93.3374 153.766 88.3791 153.766 83.3068C153.754 76.508 151.048 69.9908 146.241 65.1835C141.433 60.3763 134.915 57.671 128.117 57.6605Z" fill="white"/>
<path d="M136.106 74.2071C135.772 74.0211 135.404 73.9028 135.024 73.8589C134.644 73.8151 134.259 73.8467 133.891 73.9518C133.523 74.0569 133.179 74.2335 132.88 74.4714C132.58 74.7094 132.33 75.0041 132.145 75.3387L126.737 85.0699L123.643 81.9752C123.374 81.697 123.053 81.4751 122.697 81.3224C122.342 81.1698 121.96 81.0894 121.573 81.0861C121.186 81.0827 120.803 81.1564 120.445 81.3029C120.087 81.4493 119.762 81.6656 119.488 81.9391C119.215 82.2126 118.998 82.5378 118.852 82.8957C118.705 83.2537 118.632 83.6372 118.635 84.0239C118.638 84.4107 118.719 84.7929 118.871 85.1482C119.024 85.5036 119.246 85.825 119.524 86.0937L125.35 91.919C125.9 92.4709 126.643 92.7739 127.409 92.7739L127.812 92.7447C128.259 92.6823 128.684 92.5171 129.056 92.2621C129.428 92.0071 129.735 91.6693 129.954 91.2753L137.236 78.1683C137.422 77.834 137.54 77.4664 137.584 77.0864C137.628 76.7064 137.596 76.3215 137.491 75.9537C137.387 75.5858 137.21 75.2423 136.972 74.9426C136.735 74.6429 136.44 74.393 136.106 74.2071Z" fill="white"/>
</svg>
