<svg width="19" height="19" viewBox="0 0 19 19" fill="none" xmlns="http://www.w3.org/2000/svg">
<path d="M17.6287 17.4379L13.5787 13.3879M13.5787 13.3879C14.2287 12.7379 14.7443 11.9662 15.0961 11.1169C15.4479 10.2675 15.629 9.35725 15.629 8.43795C15.629 7.51865 15.4479 6.60835 15.0961 5.75903C14.7443 4.90971 14.2287 4.13799 13.5787 3.48795C12.9286 2.83791 12.1569 2.32226 11.3076 1.97046C10.4583 1.61866 9.54795 1.43759 8.62865 1.43759C7.70935 1.43759 6.79905 1.61866 5.94973 1.97046C5.10041 2.32226 4.3287 2.83791 3.67865 3.48795C2.36583 4.80077 1.6283 6.58134 1.6283 8.43795C1.6283 10.2946 2.36583 12.0751 3.67865 13.3879C4.99147 14.7008 6.77204 15.4383 8.62865 15.4383C10.4853 15.4383 12.2658 14.7008 13.5787 13.3879Z" stroke="#EFF9E4" stroke-width="2" stroke-linecap="round" stroke-linejoin="round"/>
</svg>
