<svg width="28" height="19" viewBox="0 0 28 19" fill="none" xmlns="http://www.w3.org/2000/svg">
<path d="M1.52422 18.6337H25.7867C26.6207 18.6337 27.3031 17.9513 27.3031 17.1173C27.3031 16.2833 26.6207 15.6009 25.7867 15.6009H1.52422C0.690195 15.6009 0.0078125 16.2833 0.0078125 17.1173C0.0078125 17.9513 0.690195 18.6337 1.52422 18.6337ZM1.52422 11.0517H25.7867C26.6207 11.0517 27.3031 10.3693 27.3031 9.53526C27.3031 8.70124 26.6207 8.01886 25.7867 8.01886H1.52422C0.690195 8.01886 0.0078125 8.70124 0.0078125 9.53526C0.0078125 10.3693 0.690195 11.0517 1.52422 11.0517ZM0.0078125 1.95323C0.0078125 2.78726 0.690195 3.46964 1.52422 3.46964H25.7867C26.6207 3.46964 27.3031 2.78726 27.3031 1.95323C27.3031 1.11921 26.6207 0.436829 25.7867 0.436829H1.52422C0.690195 0.436829 0.0078125 1.11921 0.0078125 1.95323Z" fill="black"/>
</svg>
