<svg width="54" height="58" viewBox="0 0 54 58" fill="none" xmlns="http://www.w3.org/2000/svg">
<path d="M29.3888 29.0552C29.3888 32.223 30.6472 35.261 32.8872 37.501C35.1272 39.741 38.1652 40.9994 41.333 40.9994H41.4286C43.7667 41.089 45.609 40.5634 47.771 39.1749C48.3124 38.8306 48.9363 38.6379 49.5776 38.6171C50.2189 38.5962 50.854 38.748 51.4166 39.0564C51.9793 39.3649 52.4487 39.8188 52.776 40.3707C53.1033 40.9226 53.2764 41.5522 53.2772 42.1938V52.9436C53.2772 54.2107 52.7739 55.426 51.8779 56.322C50.9819 57.2179 49.7667 57.7213 48.4995 57.7213H5.50035C4.23322 57.7213 3.018 57.2179 2.12201 56.322C1.22602 55.426 0.722656 54.2107 0.722656 52.9436V5.16673C0.722656 3.89961 1.22602 2.68438 2.12201 1.78839C3.018 0.8924 4.23322 0.389038 5.50035 0.389038H48.4995C49.7667 0.389038 50.9819 0.8924 51.8779 1.78839C52.7739 2.68438 53.2772 3.89961 53.2772 5.16673V15.9165C53.2769 16.5593 53.1037 17.1901 52.7757 17.7429C52.4477 18.2957 51.9771 18.7501 51.4132 19.0585C50.8492 19.3669 50.2127 19.5179 49.5703 19.4958C48.9279 19.4736 48.3033 19.279 47.762 18.9324C45.9483 17.8005 43.8654 17.173 41.7282 17.1149C39.5911 17.0567 37.4771 17.57 35.6046 18.6017C33.732 19.6333 32.1687 21.1461 31.0761 22.9837C29.9834 24.8213 29.4009 26.9173 29.3888 29.0552Z" fill="#159594"/>
</svg>
